<svg width="146" height="33" viewBox="0 0 146 33" fill="none" xmlns="http://www.w3.org/2000/svg">
<path d="M0.772727 25.5V22.5795L12.3864 6.28409H0.75V2.22727H18.5682V5.14773L6.94318 21.4432H18.5909V25.5H0.772727ZM103.69 25.8295C102.577 25.8295 101.584 25.6364 100.713 25.25C99.8419 24.8561 99.1525 24.2765 98.6449 23.5114C98.1449 22.7386 97.8949 21.7765 97.8949 20.625C97.8949 19.6553 98.0729 18.8409 98.429 18.1818C98.785 17.5227 99.2699 16.9924 99.8835 16.5909C100.497 16.1894 101.194 15.8864 101.974 15.6818C102.762 15.4773 103.588 15.3333 104.452 15.25C105.467 15.1439 106.285 15.0455 106.906 14.9545C107.527 14.8561 107.978 14.7121 108.259 14.5227C108.539 14.3333 108.679 14.053 108.679 13.6818V13.6136C108.679 12.8939 108.452 12.3371 107.997 11.9432C107.55 11.5492 106.914 11.3523 106.088 11.3523C105.217 11.3523 104.524 11.5455 104.009 11.9318C103.493 12.3106 103.152 12.7879 102.986 13.3636L98.5085 13C98.7358 11.9394 99.1828 11.0227 99.8494 10.25C100.516 9.4697 101.376 8.87121 102.429 8.45454C103.49 8.0303 104.717 7.81818 106.111 7.81818C107.08 7.81818 108.009 7.93182 108.895 8.15909C109.789 8.38636 110.58 8.73864 111.27 9.21591C111.967 9.69318 112.516 10.3068 112.918 11.0568C113.319 11.7992 113.52 12.6894 113.52 13.7273V25.5H108.929V23.0795H108.793C108.512 23.625 108.137 24.1061 107.668 24.5227C107.198 24.9318 106.634 25.2538 105.974 25.4886C105.315 25.7159 104.554 25.8295 103.69 25.8295ZM105.077 22.4886C105.789 22.4886 106.418 22.3485 106.963 22.0682C107.509 21.7803 107.937 21.3939 108.247 20.9091C108.558 20.4242 108.713 19.875 108.713 19.2614V17.4091C108.562 17.5076 108.353 17.5985 108.088 17.6818C107.83 17.7576 107.539 17.8295 107.213 17.8977C106.887 17.9583 106.562 18.0152 106.236 18.0682C105.91 18.1136 105.615 18.1553 105.349 18.1932C104.781 18.2765 104.285 18.4091 103.861 18.5909C103.437 18.7727 103.107 19.0189 102.872 19.3295C102.637 19.6326 102.52 20.0114 102.52 20.4659C102.52 21.125 102.759 21.6288 103.236 21.9773C103.721 22.3182 104.334 22.4886 105.077 22.4886ZM126.56 8.04545V11.6818H116.048V8.04545H126.56ZM118.435 3.86364H123.276V20.1364C123.276 20.5833 123.344 20.9318 123.48 21.1818C123.616 21.4242 123.806 21.5947 124.048 21.6932C124.298 21.7917 124.586 21.8409 124.912 21.8409C125.139 21.8409 125.366 21.822 125.594 21.7841C125.821 21.7386 125.995 21.7045 126.116 21.6818L126.878 25.2841C126.635 25.3598 126.295 25.447 125.855 25.5455C125.416 25.6515 124.882 25.7159 124.253 25.7386C123.086 25.7841 122.063 25.6288 121.185 25.2727C120.313 24.9167 119.635 24.3636 119.151 23.6136C118.666 22.8636 118.427 21.9167 118.435 20.7727V3.86364ZM137.412 25.8409C135.647 25.8409 134.12 25.4659 132.832 24.7159C131.552 23.9583 130.563 22.9053 129.866 21.5568C129.17 20.2008 128.821 18.6288 128.821 16.8409C128.821 15.0379 129.17 13.4621 129.866 12.1136C130.563 10.7576 131.552 9.70454 132.832 8.95454C134.12 8.19697 135.647 7.81818 137.412 7.81818C139.177 7.81818 140.7 8.19697 141.98 8.95454C143.268 9.70454 144.26 10.7576 144.957 12.1136C145.654 13.4621 146.003 15.0379 146.003 16.8409C146.003 18.6288 145.654 20.2008 144.957 21.5568C144.26 22.9053 143.268 23.9583 141.98 24.7159C140.7 25.4659 139.177 25.8409 137.412 25.8409ZM137.435 22.0909C138.238 22.0909 138.908 21.8636 139.446 21.4091C139.984 20.947 140.389 20.3182 140.662 19.5227C140.942 18.7273 141.082 17.822 141.082 16.8068C141.082 15.7917 140.942 14.8864 140.662 14.0909C140.389 13.2955 139.984 12.6667 139.446 12.2045C138.908 11.7424 138.238 11.5114 137.435 11.5114C136.624 11.5114 135.942 11.7424 135.389 12.2045C134.844 12.6667 134.431 13.2955 134.151 14.0909C133.878 14.8864 133.741 15.7917 133.741 16.8068C133.741 17.822 133.878 18.7273 134.151 19.5227C134.431 20.3182 134.844 20.947 135.389 21.4091C135.942 21.8636 136.624 22.0909 137.435 22.0909Z" fill="#FF0000"/>
<path d="M25.7188 25.5L20.9688 8.04545H25.8665L28.571 19.7727H28.7301L31.5483 8.04545H36.3551L39.2188 19.7045H39.3665L42.0256 8.04545H46.9119L42.1733 25.5H37.0483L34.0483 14.5227H33.8324L30.8324 25.5H25.7188ZM49.4943 25.5V8.04545H54.3352V25.5H49.4943ZM51.9261 5.79545C51.2064 5.79545 50.589 5.55682 50.0739 5.07954C49.5663 4.5947 49.3125 4.01515 49.3125 3.34091C49.3125 2.67424 49.5663 2.10227 50.0739 1.625C50.589 1.14015 51.2064 0.897726 51.9261 0.897726C52.6458 0.897726 53.2595 1.14015 53.767 1.625C54.2822 2.10227 54.5398 2.67424 54.5398 3.34091C54.5398 4.01515 54.2822 4.5947 53.767 5.07954C53.2595 5.55682 52.6458 5.79545 51.9261 5.79545ZM66.0767 32.4091C64.5085 32.4091 63.1638 32.1932 62.0426 31.7614C60.929 31.3371 60.0426 30.7576 59.3835 30.0227C58.7244 29.2879 58.2964 28.4621 58.0994 27.5455L62.5767 26.9432C62.7131 27.2917 62.929 27.6174 63.2244 27.9205C63.5199 28.2235 63.91 28.4659 64.3949 28.6477C64.8873 28.8371 65.4858 28.9318 66.1903 28.9318C67.2434 28.9318 68.1108 28.6742 68.7926 28.1591C69.482 27.6515 69.8267 26.7992 69.8267 25.6023V22.4091H69.6222C69.41 22.8939 69.0919 23.3523 68.6676 23.7841C68.2434 24.2159 67.6979 24.5682 67.0312 24.8409C66.3646 25.1136 65.5691 25.25 64.6449 25.25C63.3343 25.25 62.1411 24.947 61.0653 24.3409C59.9972 23.7273 59.1449 22.7917 58.5085 21.5341C57.8797 20.2689 57.5653 18.6705 57.5653 16.7386C57.5653 14.7614 57.8873 13.1098 58.5312 11.7841C59.1752 10.4583 60.0313 9.46591 61.0994 8.80682C62.1752 8.14773 63.3532 7.81818 64.6335 7.81818C65.6108 7.81818 66.429 7.98485 67.0881 8.31818C67.7472 8.64394 68.2775 9.05303 68.679 9.54545C69.0881 10.0303 69.4025 10.5076 69.6222 10.9773H69.804V8.04545H74.6108V25.6705C74.6108 27.1553 74.2472 28.3977 73.5199 29.3977C72.7926 30.3977 71.785 31.1477 70.4972 31.6477C69.2169 32.1553 67.7434 32.4091 66.0767 32.4091ZM66.179 21.6136C66.9593 21.6136 67.6184 21.4205 68.1562 21.0341C68.7017 20.6402 69.1184 20.0795 69.4062 19.3523C69.7017 18.6174 69.8494 17.7386 69.8494 16.7159C69.8494 15.6932 69.7055 14.8068 69.4176 14.0568C69.1297 13.2992 68.7131 12.7121 68.1676 12.2955C67.6222 11.8788 66.9593 11.6705 66.179 11.6705C65.3835 11.6705 64.7131 11.8864 64.1676 12.3182C63.6222 12.7424 63.2093 13.3333 62.929 14.0909C62.6487 14.8485 62.5085 15.7235 62.5085 16.7159C62.5085 17.7235 62.6487 18.5947 62.929 19.3295C63.2169 20.0568 63.6297 20.6212 64.1676 21.0227C64.7131 21.4167 65.3835 21.6136 66.179 21.6136ZM86.3267 32.4091C84.7585 32.4091 83.4138 32.1932 82.2926 31.7614C81.179 31.3371 80.2926 30.7576 79.6335 30.0227C78.9744 29.2879 78.5464 28.4621 78.3494 27.5455L82.8267 26.9432C82.9631 27.2917 83.179 27.6174 83.4744 27.9205C83.7699 28.2235 84.16 28.4659 84.6449 28.6477C85.1373 28.8371 85.7358 28.9318 86.4403 28.9318C87.4934 28.9318 88.3608 28.6742 89.0426 28.1591C89.732 27.6515 90.0767 26.7992 90.0767 25.6023V22.4091H89.8722C89.66 22.8939 89.3419 23.3523 88.9176 23.7841C88.4934 24.2159 87.9479 24.5682 87.2812 24.8409C86.6146 25.1136 85.8191 25.25 84.8949 25.25C83.5843 25.25 82.3911 24.947 81.3153 24.3409C80.2472 23.7273 79.3949 22.7917 78.7585 21.5341C78.1297 20.2689 77.8153 18.6705 77.8153 16.7386C77.8153 14.7614 78.1373 13.1098 78.7812 11.7841C79.4252 10.4583 80.2813 9.46591 81.3494 8.80682C82.4252 8.14773 83.6032 7.81818 84.8835 7.81818C85.8608 7.81818 86.679 7.98485 87.3381 8.31818C87.9972 8.64394 88.5275 9.05303 88.929 9.54545C89.3381 10.0303 89.6525 10.5076 89.8722 10.9773H90.054V8.04545H94.8608V25.6705C94.8608 27.1553 94.4972 28.3977 93.7699 29.3977C93.0426 30.3977 92.035 31.1477 90.7472 31.6477C89.4669 32.1553 87.9934 32.4091 86.3267 32.4091ZM86.429 21.6136C87.2093 21.6136 87.8684 21.4205 88.4062 21.0341C88.9517 20.6402 89.3684 20.0795 89.6562 19.3523C89.9517 18.6174 90.0994 17.7386 90.0994 16.7159C90.0994 15.6932 89.9555 14.8068 89.6676 14.0568C89.3797 13.2992 88.9631 12.7121 88.4176 12.2955C87.8722 11.8788 87.2093 11.6705 86.429 11.6705C85.6335 11.6705 84.9631 11.8864 84.4176 12.3182C83.8722 12.7424 83.4593 13.3333 83.179 14.0909C82.8987 14.8485 82.7585 15.7235 82.7585 16.7159C82.7585 17.7235 82.8987 18.5947 83.179 19.3295C83.4669 20.0568 83.8797 20.6212 84.4176 21.0227C84.9631 21.4167 85.6335 21.6136 86.429 21.6136Z" fill="white"/>
</svg>
